<?xml version="1.0" encoding="UTF-8"?><svg id="Layer_1" xmlns="http://www.w3.org/2000/svg" xmlns:xlink="http://www.w3.org/1999/xlink" viewBox="0 0 1920 1080"><defs><style>.cls-1,.cls-2{fill:none;}.cls-3{fill:url(#New_Pattern);}.cls-4{fill:#f2f2f2;}.cls-2{stroke:#f2f2f2;stroke-miterlimit:10;}</style><pattern id="New_Pattern" x="0" y="0" width="170" height="280" patternUnits="userSpaceOnUse" viewBox="0 0 170 280"><rect class="cls-1" width="170" height="280"/><path class="cls-4" d="m139.98,245.34c-.91-.63-1.83-1.26-2.74-1.88-1.09-.74-2.14-1.54-3.27-2.21-1.68-.99-3.59-1.25-5.5-1.51-.99-.13-1.99-.33-2.93-.64-2.61-.85-4.08-3.37-3.6-6.09.36-2,1.47-3.41,3.38-4.14,2.77-1.05,5.54-2.1,8.32-3.12,3.81-1.4,7.99.36,9.64,4.06,1.21,2.7,2.4,5.42,3.58,8.13.87,2.01.57,3.9-.82,5.56-1.38,1.66-3.17,2.36-5.34,1.93-.23-.05-.44-.13-.66-.2-.02.03-.04.06-.06.09Z"/><path class="cls-4" d="m141.66,217.1c-.72,1.62-1.73,2.93-3.28,3.76-2.32,1.23-4.67.24-5.39-2.29-.54-1.9-.22-3.71.64-5.45.54-1.08,1.24-2.04,2.21-2.78.97-.74,2.06-1.18,3.3-.97,1.62.28,2.56,1.34,2.99,2.87.47,1.68.12,3.31-.47,4.85Z"/><path class="cls-4" d="m143.91,217.98c.56-1.23,1.32-2.37,2.44-3.23.95-.73,2.02-1.15,3.23-.96,1.57.25,2.52,1.24,2.99,2.71.4,1.25.3,2.52-.02,3.77-.5,1.96-1.51,3.6-3.22,4.73-1.27.84-2.65,1.15-4.07.38-1.14-.62-1.66-1.68-1.91-2.89-.31-1.54-.06-3.02.55-4.51Z"/><path class="cls-4" d="m129.15,221.15c-.42.98-.87,1.72-1.51,2.33-1.74,1.63-4.07,1.16-5.03-1.02-.65-1.49-.63-3.04-.29-4.59.29-1.35.83-2.58,1.84-3.56,1.65-1.59,3.91-1.22,4.94.83.82,1.63.81,3.34.36,5.08-.1.38-.24.75-.3.94Z"/><path class="cls-4" d="m149.69,229.9c.72-1.63,1.86-3.08,3.63-3.93.5-.24,1.07-.41,1.63-.47,1.47-.16,2.66.72,3.02,2.16.25.99.14,1.98-.19,2.92-.66,1.9-1.83,3.41-3.57,4.44-.44.26-.94.44-1.44.54-1.91.38-3.46-.8-3.65-2.75-.09-.97.13-1.89.56-2.91Z"/><path class="cls-4" d="m166.09,319.56c-.53-.3-.62-.78-.62-1.35.01-9.08-.04-18.17.02-27.25.05-6.95-1.7-13.4-5.13-19.4-1.5-2.63-2.41-5.38-2.3-8.44.18-5.23,3.65-9.37,8.71-10.29.88-.16,1.8-.13,2.82-.2.09-.48.18-1.04.29-1.6,1.05-5.24,4.96-8.63,9.06-9.11.07,0,.13-.07.19-.11.86,0,1.72,0,2.58,0,1.9.43,3.72,1.05,5.26,2.3.43.35.85.7,1.08.9,1.54-.89,2.93-1.78,4.4-2.52.7-.36,1.52-.46,2.29-.68.86,0,1.72,0,2.58,0,.7.19,1.42.33,2.09.58,4.36,1.64,6.57,4.97,7.31,9.43.04.27.08.55.12.76,1.2.13,2.37.13,3.49.38,4.17.94,7.29,4.46,7.91,8.79.48,3.34-.25,6.43-1.91,9.33-2.19,3.82-3.9,7.84-4.65,12.18-.4,2.33-.66,4.72-.68,7.08-.08,9.26-.03,18.52-.02,27.78,0,.59-.05,1.11-.62,1.43h-.61c-.2-.43-.57-.86-.57-1.29-.03-9.52-.06-19.03-.01-28.55.03-6.86,1.98-13.21,5.38-19.12,1.35-2.35,2.15-4.84,2.01-7.58-.22-4.27-3.04-7.63-7.13-8.36-.95-.17-1.96-.11-2.94-.03-1.08.08-1.4-.14-1.44-1.26-.09-2.22-.7-4.28-2.01-6.1-3.09-4.26-8.86-4.84-12.93-1.3-.36.31-.69.67-1.02,1.01-.65.66-1.05.66-1.71-.02-.07-.07-.14-.15-.21-.22-2.43-2.49-5.31-3.69-8.78-2.83-3.5.86-5.5,3.32-6.5,6.66-.29.96-.37,1.98-.47,2.99-.09.9-.43,1.22-1.32,1.08-5.43-.84-9.99,2.95-10.22,8.47-.11,2.61.6,4.99,1.89,7.23,2.46,4.26,4.23,8.79,4.99,13.66.32,2.04.51,4.12.52,6.19.05,9.31.02,18.63.03,27.94,0,.59-.07,1.1-.6,1.45h-.61Z"/><path class="cls-4" d="m163.37,263.84c.14-.77.21-1.56.45-2.29.83-2.61,3.22-3.95,5.89-3.36,4.26.94,7.43,6.17,6.31,10.41-.82,3.1-3.57,4.61-6.63,3.63-3.34-1.07-5.88-4.66-6.02-8.39Zm11.11,2.96c-.07-2.83-2.11-5.82-4.62-6.68-2.1-.73-3.91.22-4.46,2.33-.82,3.17,1.6,7.3,4.77,8.14,1.88.5,3.53-.43,4.06-2.3.13-.48.17-.99.26-1.49Z"/><path class="cls-2" d="m75.63,242.3c-.82,0-1.64.01-2.46.02-.97.01-1.95-.03-2.91.05-1.44.11-2.71.76-3.97,1.42-.66.34-1.34.64-2.05.86-1.94.59-3.9-.32-4.76-2.17-.63-1.36-.56-2.69.3-3.94,1.23-1.81,2.47-3.62,3.72-5.41,1.72-2.46,4.99-3.16,7.57-1.62,1.88,1.13,3.75,2.27,5.61,3.42,1.38.85,2,2.13,1.86,3.72-.14,1.59-.92,2.78-2.42,3.43-.16.07-.32.11-.48.16,0,.03,0,.05,0,.08Z"/><path class="cls-2" d="m64.69,224.48c.24,1.29.19,2.51-.4,3.67-.89,1.73-2.73,2.12-4.24.89-1.13-.92-1.71-2.16-1.92-3.57-.13-.88-.11-1.76.16-2.62.28-.86.75-1.59,1.59-1.98,1.1-.52,2.12-.28,3.03.47,1,.82,1.47,1.95,1.77,3.14Z"/><path class="cls-2" d="m66.43,224.06c-.18-.98-.21-2,.11-3,.27-.84.74-1.55,1.55-1.95,1.06-.52,2.05-.31,2.96.38.78.59,1.25,1.4,1.59,2.3.53,1.4.61,2.82.05,4.23-.42,1.05-1.11,1.82-2.31,1.95-.95.11-1.72-.31-2.38-.95-.84-.8-1.32-1.81-1.57-2.97Z"/><path class="cls-2" d="m58.82,232.23c.16.78.2,1.41.07,2.05-.36,1.72-1.98,2.43-3.48,1.51-1.03-.63-1.67-1.57-2.12-2.66-.39-.94-.59-1.92-.39-2.94.33-1.66,1.85-2.39,3.34-1.59,1.19.64,1.91,1.68,2.37,2.92.1.27.17.55.22.7Z"/><path class="cls-2" d="m74.98,228.83c-.25-1.29-.17-2.65.54-3.92.2-.36.48-.7.79-.97.83-.72,1.92-.69,2.74.03.57.5.92,1.14,1.12,1.85.4,1.43.34,2.84-.28,4.2-.16.34-.38.67-.64.94-1,1.04-2.44.98-3.38-.12-.47-.55-.72-1.2-.89-2Z"/><path class="cls-4" d="m-3.91,319.56c-.53-.3-.62-.78-.62-1.35.01-9.08-.04-18.17.02-27.25.05-6.95-1.7-13.4-5.13-19.4-1.5-2.63-2.41-5.38-2.3-8.44.18-5.23,3.65-9.37,8.71-10.29.88-.16,1.8-.13,2.82-.2.09-.48.18-1.04.29-1.6,1.05-5.24,4.96-8.63,9.06-9.11.07,0,.13-.07.19-.11.86,0,1.72,0,2.58,0,1.9.43,3.72,1.05,5.26,2.3.43.35.85.7,1.08.9,1.54-.89,2.93-1.78,4.4-2.52.7-.36,1.52-.46,2.29-.68.86,0,1.72,0,2.58,0,.7.19,1.42.33,2.09.58,4.36,1.64,6.57,4.97,7.31,9.43.04.27.08.55.12.76,1.2.13,2.37.13,3.49.38,4.17.94,7.29,4.46,7.91,8.79.48,3.34-.25,6.43-1.91,9.33-2.19,3.82-3.9,7.84-4.65,12.18-.4,2.33-.66,4.72-.68,7.08-.08,9.26-.03,18.52-.02,27.78,0,.59-.05,1.11-.62,1.43h-.61c-.2-.43-.57-.86-.57-1.29-.03-9.52-.06-19.03-.01-28.55.03-6.86,1.98-13.21,5.38-19.12,1.35-2.35,2.15-4.84,2.01-7.58-.22-4.27-3.04-7.63-7.13-8.36-.95-.17-1.96-.11-2.94-.03-1.08.08-1.4-.14-1.44-1.26-.09-2.22-.7-4.28-2.01-6.1-3.09-4.26-8.86-4.84-12.93-1.3-.36.31-.69.67-1.02,1.01-.65.66-1.05.66-1.71-.02-.07-.07-.14-.15-.21-.22-2.43-2.49-5.31-3.69-8.78-2.83-3.5.86-5.5,3.32-6.5,6.66-.29.96-.37,1.98-.47,2.99-.09.9-.43,1.22-1.32,1.08-5.43-.84-9.99,2.95-10.22,8.47-.11,2.61.6,4.99,1.89,7.23,2.46,4.26,4.23,8.79,4.99,13.66.32,2.04.51,4.12.52,6.19.05,9.31.02,18.63.03,27.94,0,.59-.07,1.1-.6,1.45h-.61Z"/><path class="cls-4" d="m25.01,289.6c-1.58-.13-3.24-.39-4.9-.38-2.67.01-5.34.24-8.01.29-1.36.03-2.75.02-4.06-.25-4.06-.85-6.36-4.83-5.33-9.01.47-1.93,1.45-3.6,2.59-5.19,1.25-1.75,2.49-3.5,3.76-5.23.64-.87,1.33-1.72,2.03-2.55,3.64-4.25,10.72-4.37,14.53.28.19.23.41.45.58.7,1.94,2.68,3.9,5.35,5.79,8.07.96,1.38,1.61,2.91,1.87,4.6.69,4.52-2.12,8.15-6.65,8.56-.7.06-1.41.08-2.2.12Zm.05-1.81c.62-.04,1.3-.07,1.98-.12,3.47-.28,5.61-3.09,5.03-6.55-.28-1.64-1.02-3.06-1.96-4.39-1.56-2.21-3.15-4.39-4.75-6.57-.52-.71-1.06-1.46-1.74-1.99-.93-.74-1.94-1.55-3.05-1.88-3.2-.96-6.13-.29-8.25,2.39-2.37,3.01-4.56,6.17-6.76,9.31-.51.73-.8,1.63-1.05,2.5-.78,2.69.31,6.55,4.48,7.12.97.13,1.96.13,2.94.1,2.72-.09,5.44-.3,8.16-.32,1.63,0,3.27.25,4.96.4Z"/><path class="cls-4" d="m42.99,263.62c-.05,3.73-2.41,7.27-5.54,8.49-3.35,1.31-6.48-.43-7.14-3.95-.73-3.95,1.93-8.5,5.74-9.79,3.31-1.13,6.44.84,6.86,4.32.05.38.06.76.07.93Zm-1.81.29c-.02-.29-.03-.5-.04-.7-.23-2.72-2.43-4.11-4.9-2.95-2.68,1.25-4.03,3.51-4.21,6.44-.09,1.48.3,2.86,1.71,3.63,1.39.77,2.76.4,4-.42,2.17-1.43,3.27-3.5,3.44-6Z"/><path class="cls-4" d="m4.96,254.16c.02-1.81.35-3.27,1.21-4.57,1.57-2.39,4.37-3.08,6.81-1.6,2.61,1.58,3.75,4.07,4.02,7.01.13,1.46-.11,2.87-.75,4.2-1.59,3.29-5.19,4.12-8.03,1.83-2.25-1.82-3.18-4.29-3.27-6.86Zm10.41,1.54c-.16-2.43-1.25-4.77-2.91-5.93-1.85-1.3-3.98-.83-4.97,1.2-.38.77-.62,1.68-.66,2.53-.12,2.45.63,4.61,2.61,6.17,1.89,1.49,4.14.96,5.15-1.23.39-.85.53-1.82.79-2.73Z"/><path class="cls-4" d="m-6.63,263.84c.14-.77.21-1.56.45-2.29.83-2.61,3.22-3.95,5.89-3.36,4.26.94,7.43,6.17,6.31,10.41-.82,3.1-3.57,4.61-6.63,3.63-3.34-1.07-5.88-4.66-6.02-8.39Zm11.11,2.96c-.07-2.83-2.11-5.82-4.62-6.68-2.1-.73-3.91.22-4.46,2.33-.82,3.17,1.6,7.3,4.77,8.14,1.88.5,3.53-.43,4.06-2.3.13-.48.17-.99.26-1.49Z"/><path class="cls-4" d="m31.48,253.64c-.07,2.76-.83,4.93-2.54,6.71-3.2,3.31-7.75,2.29-9.1-2.11-1.04-3.38-.3-6.47,2.11-9.07,1.44-1.56,3.25-2.34,5.4-1.76,2.25.61,3.33,2.33,3.88,4.45.18.68.2,1.4.25,1.79Zm-1.81.22c-.02-1.21-.25-2.36-.96-3.37-.98-1.41-2.63-1.87-4.13-1.06-.59.31-1.15.76-1.58,1.26-1.47,1.73-2.01,3.79-1.68,6.02.25,1.73.97,3.28,2.88,3.68,1.83.39,3.08-.67,4.08-2.04.97-1.33,1.38-2.85,1.39-4.48Z"/><path class="cls-4" d="m54.98,105.34c-.91-.63-1.83-1.26-2.74-1.88-1.09-.74-2.14-1.54-3.27-2.21-1.68-.99-3.59-1.25-5.5-1.51-.99-.13-1.99-.33-2.93-.64-2.61-.85-4.08-3.37-3.6-6.09.36-2,1.47-3.41,3.38-4.14,2.77-1.05,5.54-2.1,8.32-3.12,3.81-1.4,7.99.36,9.64,4.06,1.21,2.7,2.4,5.42,3.58,8.13.87,2.01.57,3.9-.82,5.56-1.38,1.66-3.17,2.36-5.34,1.93-.23-.05-.44-.13-.66-.2-.02.03-.04.06-.06.09Z"/><path class="cls-4" d="m56.66,77.1c-.72,1.62-1.73,2.93-3.28,3.76-2.32,1.23-4.67.24-5.39-2.29-.54-1.9-.22-3.71.64-5.45.54-1.08,1.24-2.04,2.21-2.78.97-.74,2.06-1.18,3.3-.97,1.62.28,2.56,1.34,2.99,2.87.47,1.68.12,3.31-.47,4.85Z"/><path class="cls-4" d="m58.91,77.98c.56-1.23,1.32-2.37,2.44-3.23.95-.73,2.02-1.15,3.23-.96,1.57.25,2.52,1.24,2.99,2.71.4,1.25.3,2.52-.02,3.77-.5,1.96-1.51,3.6-3.22,4.73-1.27.84-2.65,1.15-4.07.38-1.14-.62-1.66-1.68-1.91-2.89-.31-1.54-.06-3.02.55-4.51Z"/><path class="cls-4" d="m44.15,81.15c-.42.98-.87,1.72-1.51,2.33-1.74,1.63-4.07,1.16-5.03-1.02-.65-1.49-.63-3.04-.29-4.59.29-1.35.83-2.58,1.84-3.56,1.65-1.59,3.91-1.22,4.94.83.82,1.63.81,3.34.36,5.08-.1.38-.24.75-.3.94Z"/><path class="cls-4" d="m64.69,89.9c.72-1.63,1.86-3.08,3.63-3.93.5-.24,1.07-.41,1.63-.47,1.47-.16,2.66.72,3.02,2.16.25.99.14,1.98-.19,2.92-.66,1.9-1.83,3.41-3.57,4.44-.44.26-.94.44-1.44.54-1.91.38-3.46-.8-3.65-2.75-.09-.97.13-1.89.56-2.91Z"/><path class="cls-4" d="m166.4,175.13c-.84-.46-1.67-.91-2.51-1.37-.99-.54-1.96-1.13-2.98-1.6-1.53-.7-3.18-.76-4.83-.81-.86-.03-1.73-.11-2.56-.29-2.3-.49-3.78-2.52-3.61-4.89.13-1.74.95-3.05,2.53-3.83,2.27-1.14,4.55-2.28,6.83-3.39,3.13-1.53,6.85-.39,8.59,2.63,1.27,2.2,2.52,4.42,3.77,6.63.92,1.64.82,3.28-.21,4.82-1.04,1.54-2.5,2.3-4.39,2.11-.2-.02-.39-.07-.58-.11-.01.03-.03.05-.04.08Z"/><path class="cls-4" d="m165.36,150.86c-.48,1.44-1.22,2.66-2.48,3.5-1.88,1.26-3.97.62-4.8-1.48-.63-1.57-.52-3.15.07-4.71.36-.97.88-1.85,1.64-2.57.77-.72,1.66-1.19,2.74-1.11,1.41.1,2.31.92,2.81,2.19.55,1.4.39,2.81.03,4.19Z"/><path class="cls-4" d="m167.36,151.42c.37-1.1.92-2.14,1.81-2.98.75-.7,1.62-1.16,2.67-1.1,1.37.07,2.26.84,2.79,2.06.46,1.04.48,2.13.32,3.23-.26,1.72-.97,3.21-2.34,4.32-1.02.83-2.16,1.22-3.45.68-1.02-.43-1.57-1.29-1.88-2.3-.4-1.29-.32-2.58.08-3.9Z"/><path class="cls-4" d="m155.03,155.42c-.27.88-.59,1.55-1.09,2.12-1.34,1.55-3.38,1.35-4.39-.43-.69-1.22-.81-2.54-.65-3.89.13-1.18.48-2.28,1.26-3.2,1.27-1.5,3.23-1.38,4.29.28.84,1.32.99,2.79.75,4.3-.05.33-.14.66-.17.83Z"/><path class="cls-4" d="m173.34,161.09c.47-1.45,1.32-2.79,2.76-3.68.41-.25.88-.44,1.35-.54,1.24-.26,2.33.38,2.77,1.58.3.83.29,1.68.09,2.51-.4,1.68-1.26,3.08-2.66,4.11-.35.26-.77.46-1.18.59-1.6.49-3.02-.38-3.36-2.03-.17-.82-.06-1.62.22-2.54Z"/><path class="cls-2" d="m160.63,102.3c-.82,0-1.64.01-2.46.02-.97.01-1.95-.03-2.91.05-1.44.11-2.71.76-3.97,1.42-.66.34-1.34.64-2.05.86-1.94.59-3.9-.32-4.76-2.17-.63-1.36-.56-2.69.3-3.94,1.23-1.81,2.47-3.62,3.72-5.41,1.72-2.46,4.99-3.16,7.57-1.62,1.88,1.13,3.75,2.27,5.61,3.42,1.38.85,2,2.13,1.86,3.72-.14,1.59-.92,2.78-2.42,3.43-.16.07-.32.11-.48.16,0,.03,0,.05,0,.08Z"/><path class="cls-2" d="m149.69,84.48c.24,1.29.19,2.51-.4,3.67-.89,1.73-2.73,2.12-4.24.89-1.13-.92-1.71-2.16-1.92-3.57-.13-.88-.11-1.76.16-2.62.28-.86.75-1.59,1.59-1.98,1.1-.52,2.12-.28,3.03.47,1,.82,1.47,1.95,1.77,3.14Z"/><path class="cls-2" d="m151.43,84.06c-.18-.98-.21-2,.11-3,.27-.84.74-1.55,1.55-1.95,1.06-.52,2.05-.31,2.96.38.78.59,1.25,1.4,1.59,2.3.53,1.4.61,2.82.05,4.23-.42,1.05-1.11,1.82-2.31,1.95-.95.11-1.72-.31-2.38-.95-.84-.8-1.32-1.81-1.57-2.97Z"/><path class="cls-2" d="m143.82,92.23c.16.78.2,1.41.07,2.05-.36,1.72-1.98,2.43-3.48,1.51-1.03-.63-1.67-1.57-2.12-2.66-.39-.94-.59-1.92-.39-2.94.33-1.66,1.85-2.39,3.34-1.59,1.19.64,1.91,1.68,2.37,2.92.1.27.17.55.22.7Z"/><path class="cls-2" d="m159.98,88.83c-.25-1.29-.17-2.65.54-3.92.2-.36.48-.7.79-.97.83-.72,1.92-.69,2.74.03.57.5.92,1.14,1.12,1.85.4,1.43.34,2.84-.28,4.2-.16.34-.38.67-.64.94-1,1.04-2.44.98-3.38-.12-.47-.55-.72-1.2-.89-2Z"/><path class="cls-2" d="m52.22,189.55c-.5,0-1,0-1.5.01-.59,0-1.19-.02-1.78.03-.88.07-1.65.46-2.42.86-.4.21-.82.39-1.25.52-1.18.36-2.38-.19-2.9-1.32-.39-.83-.34-1.64.18-2.41.75-1.1,1.51-2.21,2.27-3.3,1.05-1.5,3.05-1.93,4.62-.99,1.15.69,2.29,1.38,3.42,2.08.84.52,1.22,1.3,1.13,2.27-.08.97-.56,1.69-1.48,2.09-.09.04-.2.07-.3.1,0,.02,0,.03,0,.05Z"/><path class="cls-2" d="m45.55,178.68c.15.78.12,1.53-.24,2.24-.54,1.06-1.66,1.3-2.58.55-.69-.56-1.04-1.31-1.17-2.18-.08-.54-.07-1.07.1-1.6.17-.53.46-.97.97-1.21.67-.32,1.29-.17,1.85.29.61.5.9,1.19,1.08,1.92Z"/><path class="cls-2" d="m46.61,178.42c-.11-.6-.13-1.22.07-1.83.16-.51.45-.94.95-1.19.65-.32,1.25-.19,1.81.23.47.36.76.85.97,1.4.32.86.37,1.72.03,2.58-.25.64-.68,1.11-1.41,1.19-.58.06-1.05-.19-1.45-.58-.51-.49-.8-1.1-.96-1.81Z"/><path class="cls-2" d="m41.97,183.41c.1.47.12.86.04,1.25-.22,1.05-1.21,1.48-2.13.92-.63-.38-1.02-.96-1.29-1.62-.24-.57-.36-1.17-.24-1.79.2-1.01,1.13-1.46,2.04-.97.72.39,1.16,1.03,1.45,1.78.06.17.11.34.13.42Z"/><path class="cls-2" d="m51.83,181.33c-.15-.79-.11-1.62.33-2.39.12-.22.29-.43.48-.59.5-.44,1.17-.42,1.67.02.35.3.56.69.69,1.13.25.87.21,1.73-.17,2.56-.09.21-.23.41-.39.57-.61.63-1.49.6-2.06-.07-.29-.33-.44-.73-.55-1.22Z"/><path class="cls-4" d="m81.09,179.56c-.53-.3-.62-.78-.62-1.35.01-9.08-.04-18.17.02-27.25.05-6.95-1.7-13.4-5.13-19.4-1.5-2.63-2.41-5.38-2.3-8.44.18-5.23,3.65-9.37,8.71-10.29.88-.16,1.8-.13,2.82-.2.09-.48.18-1.04.29-1.6,1.05-5.24,4.96-8.63,9.06-9.11.07,0,.13-.07.19-.11.86,0,1.72,0,2.58,0,1.9.43,3.72,1.05,5.26,2.3.43.35.85.7,1.08.9,1.54-.89,2.93-1.78,4.4-2.52.7-.36,1.52-.46,2.29-.68.86,0,1.72,0,2.58,0,.7.19,1.42.33,2.09.58,4.36,1.64,6.57,4.97,7.31,9.43.04.27.08.55.12.76,1.2.13,2.37.13,3.49.38,4.17.94,7.29,4.46,7.91,8.79.48,3.34-.25,6.43-1.91,9.33-2.19,3.82-3.9,7.84-4.65,12.18-.4,2.33-.66,4.72-.68,7.08-.08,9.26-.03,18.52-.02,27.78,0,.59-.05,1.11-.62,1.43h-.61c-.2-.43-.57-.86-.57-1.29-.03-9.52-.06-19.03-.01-28.55.03-6.86,1.98-13.21,5.38-19.12,1.35-2.35,2.15-4.84,2.01-7.58-.22-4.27-3.04-7.63-7.13-8.36-.95-.17-1.96-.11-2.94-.03-1.08.08-1.4-.14-1.44-1.26-.09-2.22-.7-4.28-2.01-6.1-3.09-4.26-8.86-4.84-12.93-1.3-.36.31-.69.67-1.02,1.01-.65.66-1.05.66-1.71-.02-.07-.07-.14-.15-.21-.22-2.43-2.49-5.31-3.69-8.78-2.83-3.5.86-5.5,3.32-6.5,6.66-.29.96-.37,1.98-.47,2.99-.09.9-.43,1.22-1.32,1.08-5.43-.84-9.99,2.95-10.22,8.47-.11,2.61.6,4.99,1.89,7.23,2.46,4.26,4.23,8.79,4.99,13.66.32,2.04.51,4.12.52,6.19.05,9.31.02,18.63.03,27.94,0,.59-.07,1.1-.6,1.45h-.61Z"/><path class="cls-4" d="m110.01,149.6c-1.58-.13-3.24-.39-4.9-.38-2.67.01-5.34.24-8.01.29-1.36.03-2.75.02-4.06-.25-4.06-.85-6.36-4.83-5.33-9.01.47-1.93,1.45-3.6,2.59-5.19,1.25-1.75,2.49-3.5,3.76-5.23.64-.87,1.33-1.72,2.03-2.55,3.64-4.25,10.72-4.37,14.53.28.19.23.41.45.58.7,1.94,2.68,3.9,5.35,5.79,8.07.96,1.38,1.61,2.91,1.87,4.6.69,4.52-2.12,8.15-6.65,8.56-.7.06-1.41.08-2.2.12Zm.05-1.81c.62-.04,1.3-.07,1.98-.12,3.47-.28,5.61-3.09,5.03-6.55-.28-1.64-1.02-3.06-1.96-4.39-1.56-2.21-3.15-4.39-4.75-6.57-.52-.71-1.06-1.46-1.74-1.99-.93-.74-1.94-1.55-3.05-1.88-3.2-.96-6.13-.29-8.25,2.39-2.37,3.01-4.56,6.17-6.76,9.31-.51.73-.8,1.63-1.05,2.5-.78,2.69.31,6.55,4.48,7.12.97.13,1.96.13,2.94.1,2.72-.09,5.44-.3,8.16-.32,1.63,0,3.27.25,4.96.4Z"/><path class="cls-4" d="m127.99,123.62c-.05,3.73-2.41,7.27-5.54,8.49-3.35,1.31-6.48-.43-7.14-3.95-.73-3.95,1.93-8.5,5.74-9.79,3.31-1.13,6.44.84,6.86,4.32.05.38.06.76.07.93Zm-1.81.29c-.02-.29-.03-.5-.04-.7-.23-2.72-2.43-4.11-4.9-2.95-2.68,1.25-4.03,3.51-4.21,6.44-.09,1.48.3,2.86,1.71,3.63,1.39.77,2.76.4,4-.42,2.17-1.43,3.27-3.5,3.44-6Z"/><path class="cls-4" d="m89.96,114.16c.02-1.81.35-3.27,1.21-4.57,1.57-2.39,4.37-3.08,6.81-1.6,2.61,1.58,3.75,4.07,4.02,7.01.13,1.46-.11,2.87-.75,4.2-1.59,3.29-5.19,4.12-8.03,1.83-2.25-1.82-3.18-4.29-3.27-6.86Zm10.41,1.54c-.16-2.43-1.25-4.77-2.91-5.93-1.85-1.3-3.98-.83-4.97,1.2-.38.77-.62,1.68-.66,2.53-.12,2.45.63,4.61,2.61,6.17,1.89,1.49,4.14.96,5.15-1.23.39-.85.53-1.82.79-2.73Z"/><path class="cls-4" d="m78.37,123.84c.14-.77.21-1.56.45-2.29.83-2.61,3.22-3.95,5.89-3.36,4.26.94,7.43,6.17,6.31,10.41-.82,3.1-3.57,4.61-6.63,3.63-3.34-1.07-5.88-4.66-6.02-8.39Zm11.11,2.96c-.07-2.83-2.11-5.82-4.62-6.68-2.1-.73-3.91.22-4.46,2.33-.82,3.17,1.6,7.3,4.77,8.14,1.88.5,3.53-.43,4.06-2.3.13-.48.17-.99.26-1.49Z"/><path class="cls-4" d="m116.48,113.64c-.07,2.76-.83,4.93-2.54,6.71-3.2,3.31-7.75,2.29-9.1-2.11-1.04-3.38-.3-6.47,2.11-9.07,1.44-1.56,3.25-2.34,5.4-1.76,2.25.61,3.33,2.33,3.88,4.45.18.68.2,1.4.25,1.79Zm-1.81.22c-.02-1.21-.25-2.36-.96-3.37-.98-1.41-2.63-1.87-4.13-1.06-.59.31-1.15.76-1.58,1.26-1.47,1.73-2.01,3.79-1.68,6.02.25,1.73.97,3.28,2.88,3.68,1.83.39,3.08-.67,4.08-2.04.97-1.33,1.38-2.85,1.39-4.48Z"/><path class="cls-4" d="m-3.6,175.13c-.84-.46-1.67-.91-2.51-1.37-.99-.54-1.96-1.13-2.98-1.6-1.53-.7-3.18-.76-4.83-.81-.86-.03-1.73-.11-2.56-.29-2.3-.49-3.78-2.52-3.61-4.89.13-1.74.95-3.05,2.53-3.83,2.27-1.14,4.55-2.28,6.83-3.39,3.13-1.53,6.85-.39,8.59,2.63,1.27,2.2,2.52,4.42,3.77,6.63.92,1.64.82,3.28-.21,4.82-1.04,1.54-2.5,2.3-4.39,2.11-.2-.02-.39-.07-.58-.11-.01.03-.03.05-.04.08Z"/><path class="cls-4" d="m-2.64,151.42c.37-1.1.92-2.14,1.81-2.98.75-.7,1.62-1.16,2.67-1.1,1.37.07,2.26.84,2.79,2.06.46,1.04.48,2.13.32,3.23-.26,1.72-.97,3.21-2.34,4.32-1.02.83-2.16,1.22-3.45.68-1.02-.43-1.57-1.29-1.88-2.3-.4-1.29-.32-2.58.08-3.9Z"/><path class="cls-4" d="m3.34,161.09c.47-1.45,1.32-2.79,2.76-3.68.41-.25.88-.44,1.35-.54,1.24-.26,2.33.38,2.77,1.58.3.83.29,1.68.09,2.51-.4,1.68-1.26,3.08-2.66,4.11-.35.26-.77.46-1.18.59-1.6.49-3.02-.38-3.36-2.03-.17-.82-.06-1.62.22-2.54Z"/><path class="cls-2" d="m137.22,49.55c-.5,0-1,0-1.5.01-.59,0-1.19-.02-1.78.03-.88.07-1.65.46-2.42.86-.4.21-.82.39-1.25.52-1.18.36-2.38-.19-2.9-1.32-.39-.83-.34-1.64.18-2.41.75-1.1,1.51-2.21,2.27-3.3,1.05-1.5,3.05-1.93,4.62-.99,1.15.69,2.29,1.38,3.42,2.08.84.52,1.22,1.3,1.13,2.27-.08.97-.56,1.69-1.48,2.09-.09.04-.2.07-.3.1,0,.02,0,.03,0,.05Z"/><path class="cls-2" d="m130.55,38.68c.15.78.12,1.53-.24,2.24-.54,1.06-1.66,1.3-2.58.55-.69-.56-1.04-1.31-1.17-2.18-.08-.54-.07-1.07.1-1.6.17-.53.46-.97.97-1.21.67-.32,1.29-.17,1.85.29.61.5.9,1.19,1.08,1.92Z"/><path class="cls-2" d="m131.61,38.42c-.11-.6-.13-1.22.07-1.83.16-.51.45-.94.95-1.19.65-.32,1.25-.19,1.81.23.47.36.76.85.97,1.4.32.86.37,1.72.03,2.58-.25.64-.68,1.11-1.41,1.19-.58.06-1.05-.19-1.45-.58-.51-.49-.8-1.1-.96-1.81Z"/><path class="cls-2" d="m126.97,43.41c.1.47.12.86.04,1.25-.22,1.05-1.21,1.48-2.13.92-.63-.38-1.02-.96-1.29-1.62-.24-.57-.36-1.17-.24-1.79.2-1.01,1.13-1.46,2.04-.97.72.39,1.16,1.03,1.45,1.78.06.17.11.34.13.42Z"/><path class="cls-2" d="m136.83,41.33c-.15-.79-.11-1.62.33-2.39.12-.22.29-.43.48-.59.5-.44,1.17-.42,1.67.02.35.3.56.69.69,1.13.25.87.21,1.73-.17,2.56-.09.21-.23.41-.39.57-.61.63-1.49.6-2.06-.07-.29-.33-.44-.73-.55-1.22Z"/><path class="cls-4" d="m166.09,39.56c-.53-.3-.62-.78-.62-1.35.01-9.08-.04-18.17.02-27.25.05-6.95-1.7-13.4-5.13-19.4-1.5-2.63-2.41-5.38-2.3-8.44.18-5.23,3.65-9.37,8.71-10.29.88-.16,1.8-.13,2.82-.2.09-.48.18-1.04.29-1.6,1.05-5.24,4.96-8.63,9.06-9.11.07,0,.13-.07.19-.11.86,0,1.72,0,2.58,0,1.9.43,3.72,1.05,5.26,2.3.43.35.85.7,1.08.9,1.54-.89,2.93-1.78,4.4-2.52.7-.36,1.52-.46,2.29-.68.86,0,1.72,0,2.58,0,.7.19,1.42.33,2.09.58,4.36,1.64,6.57,4.97,7.31,9.43.04.27.08.55.12.76,1.2.13,2.37.13,3.49.38,4.17.94,7.29,4.46,7.91,8.79.48,3.34-.25,6.43-1.91,9.33-2.19,3.82-3.9,7.84-4.65,12.18-.4,2.33-.66,4.72-.68,7.08-.08,9.26-.03,18.52-.02,27.78,0,.59-.05,1.11-.62,1.43h-.61c-.2-.43-.57-.86-.57-1.29-.03-9.52-.06-19.03-.01-28.55.03-6.86,1.98-13.21,5.38-19.12,1.35-2.35,2.15-4.84,2.01-7.58-.22-4.27-3.04-7.63-7.13-8.36-.95-.17-1.96-.11-2.94-.03-1.08.08-1.4-.14-1.44-1.26-.09-2.22-.7-4.28-2.01-6.1-3.09-4.26-8.86-4.84-12.93-1.3-.36.31-.69.67-1.02,1.01-.65.66-1.05.66-1.71-.02-.07-.07-.14-.15-.21-.22-2.43-2.49-5.31-3.69-8.78-2.83-3.5.86-5.5,3.32-6.5,6.66-.29.96-.37,1.98-.47,2.99-.09.9-.43,1.22-1.32,1.08-5.43-.84-9.99,2.95-10.22,8.47-.11,2.61.6,4.99,1.89,7.23,2.46,4.26,4.23,8.79,4.99,13.66.32,2.04.51,4.12.52,6.19.05,9.31.02,18.63.03,27.94,0,.59-.07,1.1-.6,1.45h-.61Z"/><path class="cls-4" d="m81.4,35.13c-.84-.46-1.67-.91-2.51-1.37-.99-.54-1.96-1.13-2.98-1.6-1.53-.7-3.18-.76-4.83-.81-.86-.03-1.73-.11-2.56-.29-2.3-.49-3.78-2.52-3.61-4.89.13-1.74.95-3.05,2.53-3.83,2.27-1.14,4.55-2.28,6.83-3.39,3.13-1.53,6.85-.39,8.59,2.63,1.27,2.2,2.52,4.42,3.77,6.63.92,1.64.82,3.28-.21,4.82-1.04,1.54-2.5,2.3-4.39,2.11-.2-.02-.39-.07-.58-.11-.01.03-.03.05-.04.08Z"/><path class="cls-4" d="m80.36,10.86c-.48,1.44-1.22,2.66-2.48,3.5-1.88,1.26-3.97.62-4.8-1.48-.63-1.57-.52-3.15.07-4.71.36-.97.88-1.85,1.64-2.57.77-.72,1.66-1.19,2.74-1.11,1.41.1,2.31.92,2.81,2.19.55,1.4.39,2.81.03,4.19Z"/><path class="cls-4" d="m82.36,11.42c.37-1.1.92-2.14,1.81-2.98.75-.7,1.62-1.16,2.67-1.1,1.37.07,2.26.84,2.79,2.06.46,1.04.48,2.13.32,3.23-.26,1.72-.97,3.21-2.34,4.32-1.02.83-2.16,1.22-3.45.68-1.02-.43-1.57-1.29-1.88-2.3-.4-1.29-.32-2.58.08-3.9Z"/><path class="cls-4" d="m70.03,15.42c-.27.88-.59,1.55-1.09,2.12-1.34,1.55-3.38,1.35-4.39-.43-.69-1.22-.81-2.54-.65-3.89.13-1.18.48-2.28,1.26-3.2,1.27-1.5,3.23-1.38,4.29.28.84,1.32.99,2.79.75,4.3-.05.33-.14.66-.17.83Z"/><path class="cls-4" d="m88.34,21.09c.47-1.45,1.32-2.79,2.76-3.68.41-.25.88-.44,1.35-.54,1.24-.26,2.33.38,2.77,1.58.3.83.29,1.68.09,2.51-.4,1.68-1.26,3.08-2.66,4.11-.35.26-.77.46-1.18.59-1.6.49-3.02-.38-3.36-2.03-.17-.82-.06-1.62.22-2.54Z"/><path class="cls-4" d="m-3.91,39.56c-.53-.3-.62-.78-.62-1.35.01-9.08-.04-18.17.02-27.25.05-6.95-1.7-13.4-5.13-19.4-1.5-2.63-2.41-5.38-2.3-8.44.18-5.23,3.65-9.37,8.71-10.29.88-.16,1.8-.13,2.82-.2.09-.48.18-1.04.29-1.6,1.05-5.24,4.96-8.63,9.06-9.11.07,0,.13-.07.19-.11.86,0,1.72,0,2.58,0,1.9.43,3.72,1.05,5.26,2.3.43.35.85.7,1.08.9,1.54-.89,2.93-1.78,4.4-2.52.7-.36,1.52-.46,2.29-.68.86,0,1.72,0,2.58,0,.7.19,1.42.33,2.09.58,4.36,1.64,6.57,4.97,7.31,9.43.04.27.08.55.12.76,1.2.13,2.37.13,3.49.38,4.17.94,7.29,4.46,7.91,8.79.48,3.34-.25,6.43-1.91,9.33-2.19,3.82-3.9,7.84-4.65,12.18-.4,2.33-.66,4.72-.68,7.08-.08,9.26-.03,18.52-.02,27.78,0,.59-.05,1.11-.62,1.43h-.61c-.2-.43-.57-.86-.57-1.29-.03-9.52-.06-19.03-.01-28.55.03-6.86,1.98-13.21,5.38-19.12,1.35-2.35,2.15-4.84,2.01-7.58-.22-4.27-3.04-7.63-7.13-8.36-.95-.17-1.96-.11-2.94-.03-1.08.08-1.4-.14-1.44-1.26-.09-2.22-.7-4.28-2.01-6.1-3.09-4.26-8.86-4.84-12.93-1.3-.36.31-.69.67-1.02,1.01-.65.66-1.05.66-1.71-.02-.07-.07-.14-.15-.21-.22-2.43-2.49-5.31-3.69-8.78-2.83-3.5.86-5.5,3.32-6.5,6.66-.29.96-.37,1.98-.47,2.99-.09.9-.43,1.22-1.32,1.08-5.43-.84-9.99,2.95-10.22,8.47-.11,2.61.6,4.99,1.89,7.23C-5.78-5.42-4.01-.89-3.25,3.98c.32,2.04.51,4.12.52,6.19.05,9.31.02,18.63.03,27.94,0,.59-.07,1.1-.6,1.45h-.61Z"/><path class="cls-4" d="m25.01,9.6c-1.58-.13-3.24-.39-4.9-.38-2.67.01-5.34.24-8.01.29-1.36.03-2.75.02-4.06-.25C3.97,8.4,1.67,4.42,2.7.24c.47-1.93,1.45-3.6,2.59-5.19,1.25-1.75,2.49-3.5,3.76-5.23.64-.87,1.33-1.72,2.03-2.55,3.64-4.25,10.72-4.37,14.53.28.19.23.41.45.58.7,1.94,2.68,3.9,5.35,5.79,8.07.96,1.38,1.61,2.91,1.87,4.6.69,4.52-2.12,8.15-6.65,8.56-.7.06-1.41.08-2.2.12Zm.05-1.81c.62-.04,1.3-.07,1.98-.12,3.47-.28,5.61-3.09,5.03-6.55-.28-1.64-1.02-3.06-1.96-4.39-1.56-2.21-3.15-4.39-4.75-6.57-.52-.71-1.06-1.46-1.74-1.99-.93-.74-1.94-1.55-3.05-1.88-3.2-.96-6.13-.29-8.25,2.39-2.37,3.01-4.56,6.17-6.76,9.31-.51.73-.8,1.63-1.05,2.5-.78,2.69.31,6.55,4.48,7.12.97.13,1.96.13,2.94.1,2.72-.09,5.44-.3,8.16-.32,1.63,0,3.27.25,4.96.4Z"/></pattern></defs><rect class="cls-3" width="1920" height="1080"/></svg>